HIERARCHY
ROOT Hips
{
	OFFSET 0.000000 88.474243 0.000000
	CHANNELS 6 Xposition Yposition Zposition Zrotation Yrotation Xrotation 
	JOINT Hips_Spine
	{
		OFFSET 0.000000 0.000000 0.000000
		CHANNELS 3 Zrotation Yrotation Xrotation
		JOINT Spine
		{
			OFFSET 0.005100 8.711998 -0.691000
			CHANNELS 3 Zrotation Yrotation Xrotation
			JOINT Spine1
			{
				OFFSET -0.009200 8.660301 -1.275000
				CHANNELS 3 Zrotation Yrotation Xrotation
				JOINT Spine2
				{
					OFFSET 0.006300 9.852501 -1.857000
					CHANNELS 3 Zrotation Yrotation Xrotation
					JOINT Spine2_Neck
					{
						OFFSET 0.000000 0.000000 0.000000
						CHANNELS 3 Zrotation Yrotation Xrotation
						JOINT Neck
						{
							OFFSET 0.016300 11.420799 -0.263300
							CHANNELS 3 Zrotation Yrotation Xrotation
							End Site #name: Head
							{
								OFFSET -0.019200 9.262405 2.362500
							}
						}
					}
					JOINT Spine2_LeftShoulder
					{
						OFFSET 0.000000 0.000000 0.000000
						CHANNELS 3 Zrotation Yrotation Xrotation
						JOINT LeftShoulder
						{
							OFFSET 5.616900 6.732201 -0.345700
							CHANNELS 3 Zrotation Yrotation Xrotation
							JOINT LeftArm
							{
								OFFSET 10.664888 -0.183372 -2.440700
								CHANNELS 3 Zrotation Yrotation Xrotation
								JOINT LeftForeArm
								{
									OFFSET 27.459126 0.000000 0.000000
									CHANNELS 3 Zrotation Yrotation Xrotation
									End Site #name: LeftHand
									{
										OFFSET 21.306858 0.000000 0.000000
									}
								}
							}
						}
					}
					JOINT Spine2_RightShoulder
					{
						OFFSET 0.000000 0.000000 0.000000
						CHANNELS 3 Zrotation Yrotation Xrotation
						JOINT RightShoulder
						{
							OFFSET -5.580300 6.737503 -0.344400
							CHANNELS 3 Zrotation Yrotation Xrotation
							JOINT RightArm
							{
								OFFSET -10.679335 -0.188484 -2.383900
								CHANNELS 3 Zrotation Yrotation Xrotation
								JOINT RightForeArm
								{
									OFFSET -27.503529 0.000000 0.000000
									CHANNELS 3 Zrotation Yrotation Xrotation
									End Site #name: RightHand
									{
										OFFSET -21.306808 0.000000 0.000000
									}
								}
							}
						}
					}
				}
			}
		}
	}
	JOINT Hips_LeftUpLeg
	{
		OFFSET 0.000000 0.000000 0.000000
		CHANNELS 3 Zrotation Yrotation Xrotation
		JOINT LeftUpLeg
		{
			OFFSET 6.857700 -6.739601 0.312100
			CHANNELS 3 Zrotation Yrotation Xrotation
			JOINT LeftLeg
			{
				OFFSET -0.367590 -34.731552 -4.572400
				CHANNELS 3 Zrotation Yrotation Xrotation
				End Site #name: LeftFoot
				{
					OFFSET 0.367590 -34.656704 -6.067400
				}
			}
		}
	}
	JOINT Hips_RightUpLeg
	{
		OFFSET 0.000000 0.000000 0.000000
		CHANNELS 3 Zrotation Yrotation Xrotation
		JOINT RightUpLeg
		{
			OFFSET -6.876100 -6.733299 0.301000
			CHANNELS 3 Zrotation Yrotation Xrotation
			JOINT RightLeg
			{
				OFFSET 0.347353 -34.795158 -4.515900
				CHANNELS 3 Zrotation Yrotation Xrotation
				End Site #name: RightFoot
				{
					OFFSET -0.347353 -34.589367 -6.070300
				}
			}
		}
	}
}
MOTION
Frames: 18
Frame Time: 0.041667
0.067970 -0.041071 -0.088794 -10.939439 58.249128 -10.768566 -0.000000 -0.000000 0.000000 -0.929226 1.082357 -1.317888 3.518633 0.322330 3.705825 0.000000 0.000000 0.000000 3.672121 -0.286633 0.884126 -1.246208 -4.763441 -0.936096 2.098802 0.767205 2.665998 -7.790983 -8.269256 1.611682 -77.079970 0.041168 0.290826 -0.108475 -22.740546 2.473313 2.808469 -0.020339 3.125588 14.376267 9.999672 4.245065 51.802000 3.604970 -13.072505 -18.306219 81.681901 -14.012670 0.000000 -0.000000 -0.000000 -0.104947 18.717777 -18.594346 -5.008169 -18.706007 5.623774 0.000000 -0.000000 -0.000000 -3.348137 -15.016227 -9.746802 -10.522466 -10.936858 19.619426 
0.097066 -0.188924 -0.132928 -8.196464 51.765170 -6.592142 -0.000000 -0.000000 0.000000 -1.539883 0.924776 -0.501484 4.790474 0.343752 3.641055 0.000000 0.000000 0.000000 4.424319 -0.205697 2.664553 0.506323 -8.475726 -0.555652 3.081991 0.706659 2.799616 -8.115796 -9.482836 1.986111 -80.050430 -9.098449 -4.319959 -1.501310 -17.869794 1.978161 4.976193 -0.345337 3.918406 17.513364 9.700295 3.090503 54.843982 3.315111 -10.477143 -6.065219 73.732504 -2.086634 0.000000 -0.000000 -0.000000 1.112680 21.076374 -17.826620 -4.625724 -15.911582 3.759910 0.000000 -0.000000 -0.000000 -3.672513 -9.481531 -9.223391 -6.465011 -8.284932 17.858668 
0.156242 -0.224700 -0.171382 -9.551354 50.578768 -8.013202 -0.000000 -0.000000 0.000000 -0.488375 -1.427522 -1.071221 5.886197 0.176362 4.160003 0.000000 0.000000 0.000000 5.586241 -0.538345 3.671691 0.136929 -13.353629 -0.210214 3.620704 0.582164 2.765239 -7.004133 -7.457711 0.199257 -80.336527 -10.049711 -7.616326 -1.215405 -8.630875 1.806447 6.030588 -0.527249 4.225943 17.539213 9.226814 2.986310 55.012628 5.205644 -7.780351 -7.603738 76.465008 -3.013703 -0.000000 -0.000000 -0.000000 2.288483 23.159823 -16.131372 -4.539714 -15.967323 3.792482 -0.000000 -0.000000 -0.000000 -3.293788 -9.390159 -7.919106 -4.102663 -7.320277 17.496910 
0.210001 -0.279107 -0.237715 -11.130675 50.704911 -10.590917 -0.000000 -0.000000 0.000000 0.740193 -2.993156 -0.581117 6.221044 -0.175910 4.572844 0.000000 0.000000 0.000000 5.999480 -0.920736 4.180357 -0.361147 -16.184227 -0.086953 3.854874 0.265271 2.378873 -6.243222 -4.468851 -2.169066 -81.709004 -12.752217 -8.027487 -1.182236 -2.948925 1.721453 6.459195 -1.114480 4.442741 16.495994 5.471992 2.143945 55.765565 6.796917 -7.980159 -16.727225 84.362943 -12.071574 -0.000000 0.000000 -0.000000 2.829431 24.799557 -14.667036 -3.715281 -16.099117 3.376488 -0.000000 -0.000000 -0.000000 -2.982552 -11.941560 -6.699969 -3.468804 -6.163290 17.123447 
0.268640 -0.334223 -0.315194 -11.718168 50.691902 -11.876764 -0.000000 -0.000000 0.000000 1.792579 -4.022284 -0.125441 6.124549 -0.447138 4.839990 0.000000 0.000000 0.000000 5.956493 -1.184912 4.845957 -0.091671 -17.785085 0.541733 3.783022 -0.100846 2.265079 -5.959917 -2.862265 -3.486519 -82.252092 -14.738086 -7.081718 -1.160066 0.067492 1.979753 6.381884 -1.517863 4.753736 16.631116 1.045072 1.057845 56.734328 7.591048 -8.091869 -108.053084 88.510582 -103.478768 -0.000000 0.000000 -0.000000 3.110200 25.459273 -13.605337 -3.163032 -16.474353 2.970297 -0.000000 -0.000000 -0.000000 -2.882662 -14.059883 -5.644304 -3.972344 -5.513201 16.532017 
0.339155 -0.386435 -0.391574 -11.756211 50.642791 -12.078277 -0.000000 -0.000000 0.000000 2.557796 -4.260933 0.291439 5.781681 -0.651437 4.983170 0.000000 0.000000 0.000000 5.678019 -1.292795 5.390292 0.431171 -18.878606 0.738109 3.531051 -0.344994 2.624430 -5.743355 -2.693154 -3.706961 -82.218093 -15.837963 -5.650082 -1.067086 1.061295 2.499840 5.996333 -1.768247 5.097950 17.828263 -0.817137 0.435381 57.672445 7.069155 -8.331354 -159.086466 86.435371 -154.550545 -0.000000 0.000000 -0.000000 3.169961 25.398970 -13.122531 -2.895572 -16.960728 2.653678 -0.000000 -0.000000 -0.000000 -2.822777 -15.122616 -5.079368 -4.779832 -5.598119 16.025256 
0.422018 -0.430826 -0.459695 -11.099054 49.708812 -11.047815 -0.000000 -0.000000 0.000000 3.001188 -4.665508 0.740770 5.398707 -0.769767 5.195929 0.000000 0.000000 0.000000 5.329020 -1.305938 5.675705 0.750456 -19.179150 0.610697 3.246853 -0.480340 3.010323 -5.781179 -2.524489 -3.607383 -81.843647 -16.358828 -4.481250 -0.829185 0.624409 3.343439 5.567421 -1.917492 5.365620 18.709418 0.003121 0.465205 58.214088 5.433874 -8.487345 -166.853778 84.875484 -162.407193 -0.000000 0.000000 -0.000000 3.160346 24.909076 -12.963269 -2.845793 -17.759736 2.099066 -0.000000 -0.000000 -0.000000 -2.841300 -16.287916 -4.927836 -5.720249 -6.286808 15.887744 
0.509371 -0.471013 -0.522159 -10.273514 48.281391 -9.624210 -0.000000 -0.000000 0.000000 3.237786 -5.010917 1.022392 5.049933 -0.879889 5.441745 0.000000 0.000000 0.000000 5.034926 -1.329012 5.823617 0.765923 -19.160073 0.267231 2.990752 -0.532628 3.355084 -5.995317 -2.274528 -3.426608 -81.484701 -16.560014 -3.854442 -0.544723 -0.190094 4.149051 5.174194 -1.986855 5.538915 19.092943 2.074666 0.873079 58.547217 3.575042 -8.796174 -170.217316 83.314026 -165.888579 0.000000 0.000000 -0.000000 2.987847 24.166217 -12.995543 -2.828878 -18.689013 1.299169 -0.000000 -0.000000 -0.000000 -2.838832 -17.435518 -5.136040 -6.535385 -7.022431 16.108423 
0.598794 -0.509684 -0.579019 -9.722212 47.023308 -8.526951 -0.000000 -0.000000 0.000000 3.333526 -5.300459 1.063653 4.803690 -0.962753 5.672927 0.000000 0.000000 0.000000 4.836091 -1.371965 5.903350 0.801110 -19.157363 0.101863 2.795086 -0.572640 3.582672 -6.051583 -2.083575 -3.336518 -81.201889 -16.709871 -3.743865 -0.206758 -1.051053 4.725549 4.863426 -2.078485 5.624979 19.202246 3.934526 1.292221 58.694385 1.808543 -8.787172 -171.858971 81.832531 -167.617320 0.000000 0.000000 -0.000000 2.881035 23.474823 -12.938429 -2.792522 -19.508750 0.506100 -0.000000 -0.000000 -0.000000 -2.825665 -18.541195 -5.419691 -7.075261 -7.566759 16.466493 
0.685387 -0.545214 -0.633572 -9.462946 46.227256 -7.889696 -0.000000 -0.000000 0.000000 3.456006 -5.434634 1.072542 4.656149 -1.024088 5.871872 0.000000 0.000000 0.000000 4.718355 -1.412680 6.008201 0.751937 -19.266344 0.158189 2.669514 -0.580370 3.835638 -5.821492 -2.094517 -3.272661 -81.296650 -16.866560 -3.912473 0.212578 -2.017704 5.206426 4.674051 -2.177229 5.713628 19.067563 5.244290 1.551630 58.781579 0.291670 -8.466211 -173.181929 80.242239 -169.013411 0.000000 0.000000 -0.000000 2.891690 23.027145 -12.764676 -2.733314 -20.044804 -0.115712 -0.000000 -0.000000 -0.000000 -2.800389 -19.284505 -5.643563 -7.292477 -7.894855 16.809877 
0.768736 -0.576462 -0.687246 -9.414953 45.773763 -7.647420 -0.000000 -0.000000 0.000000 3.622336 -5.482245 1.198469 4.591880 -1.074829 6.084158 0.000000 0.000000 0.000000 4.675283 -1.448176 6.134407 0.811598 -19.396397 0.221686 2.613218 -0.573279 4.123345 -5.460193 -2.177077 -3.215082 -81.652551 -16.901726 -4.269378 0.458304 -2.634097 5.390385 4.582796 -2.274780 5.836312 18.682311 5.886756 1.616802 58.852964 -0.630140 -7.826687 -174.470737 78.112685 -170.338952 0.000000 0.000000 -0.000000 2.963970 22.759955 -12.524008 -2.670134 -20.342055 -0.559424 -0.000000 -0.000000 -0.000000 -2.762222 -19.528486 -5.768106 -7.321404 -8.206707 17.034260 
0.849424 -0.603843 -0.741559 -9.475106 45.598931 -7.630693 0.000000 -0.000000 0.000000 3.787513 -5.533254 1.366170 4.584056 -1.121519 6.294616 0.000000 0.000000 0.000000 4.671399 -1.481149 6.281079 0.884885 -19.463497 0.270397 2.591668 -0.557748 4.423414 -5.065916 -2.288037 -3.175458 -81.932689 -16.935949 -4.500058 0.560397 -2.965843 5.397064 4.549025 -2.357187 5.987245 18.118510 5.858526 1.474833 58.950093 -0.979493 -7.247654 -175.568426 75.568375 -171.419444 0.000000 0.000000 -0.000000 3.059033 22.616394 -12.282054 -2.612068 -20.487479 -0.841104 -0.000000 -0.000000 -0.000000 -2.725824 -19.384013 -5.817945 -7.195580 -8.474625 17.140257 
0.928126 -0.628822 -0.797364 -9.597867 45.586289 -7.745719 0.000000 -0.000000 0.000000 3.927429 -5.587343 1.580907 4.600108 -1.170291 6.489751 0.000000 0.000000 0.000000 4.690144 -1.515132 6.429542 0.979936 -19.480463 0.307184 2.591050 -0.553090 4.684586 -4.735332 -2.350912 -3.158092 -82.192105 -16.952540 -4.579907 0.610709 -3.164902 5.281014 4.549048 -2.424608 6.154659 17.581041 5.383154 1.239949 59.118050 -0.887219 -6.779784 -176.535128 72.622995 -172.317178 0.000000 0.000000 -0.000000 3.164026 22.558578 -12.058245 -2.569501 -20.539789 -0.993278 0.000000 0.000000 -0.000000 -2.687658 -19.005746 -5.792556 -6.996826 -8.696788 17.124252 
1.006100 -0.652331 -0.854660 -9.740432 45.649567 -7.911979 0.000000 -0.000000 0.000000 4.036581 -5.677471 1.821870 4.617202 -1.227487 6.676185 0.000000 0.000000 0.000000 4.708588 -1.551037 6.568138 1.091397 -19.455526 0.353050 2.595256 -0.560088 4.907752 -4.449925 -2.350547 -3.176568 -82.390654 -16.884496 -4.536929 0.651467 -3.315791 5.103139 4.554326 -2.490473 6.320577 17.061596 4.816147 0.952438 59.359258 -0.564896 -6.446219 -177.303879 69.423721 -172.992326 0.000000 0.000000 -0.000000 3.272014 22.553793 -11.834210 -2.533093 -20.568822 -1.100441 0.000000 0.000000 -0.000000 -2.641777 -18.527359 -5.729054 -6.768721 -8.837292 17.045944 
1.083562 -0.675054 -0.913654 -9.894383 45.776806 -8.100105 0.000000 -0.000000 0.000000 4.125524 -5.807043 2.049707 4.625492 -1.289126 6.858303 0.000000 0.000000 0.000000 4.724560 -1.592656 6.699901 1.200415 -19.425787 0.394178 2.595882 -0.584822 5.090492 -4.205457 -2.308196 -3.212520 -82.544509 -16.805241 -4.495539 0.680481 -3.431473 4.918341 4.553333 -2.555599 6.487481 16.626016 4.415434 0.670023 59.619001 -0.162940 -6.134280 -177.828111 66.615440 -173.402162 0.000000 0.000000 -0.000000 3.375056 22.569403 -11.615358 -2.501767 -20.622574 -1.196673 0.000000 0.000000 -0.000000 -2.592655 -18.037037 -5.647562 -6.518477 -8.860022 16.943985 
1.160717 -0.698018 -0.974882 -10.052064 45.957792 -8.293586 0.000000 -0.000000 0.000000 4.195703 -5.981662 2.215805 4.615084 -1.348367 7.031338 0.000000 0.000000 0.000000 4.730552 -1.634747 6.816478 1.304988 -19.405744 0.418341 2.590413 -0.623290 5.240415 -3.985139 -2.278909 -3.250740 -82.667872 -16.760584 -4.470942 0.705049 -3.457149 4.745739 4.543201 -2.625299 6.644731 16.334882 4.209221 0.454255 59.861496 0.223152 -5.806145 -178.270597 63.847168 -173.743276 0.000000 0.000000 -0.000000 3.475216 22.593537 -11.402534 -2.476835 -20.745357 -1.305106 0.000000 0.000000 -0.000000 -2.541992 -17.588508 -5.551678 -6.305641 -8.868362 16.839754 
1.237790 -0.722003 -1.038323 -10.208077 46.188454 -8.482798 0.000000 -0.000000 0.000000 4.260915 -6.143816 2.380638 4.595725 -1.405935 7.185595 0.000000 0.000000 0.000000 4.728719 -1.676574 6.918335 1.399393 -19.412030 0.425301 2.575447 -0.665208 5.370756 -3.787501 -2.254432 -3.291181 -82.755617 -16.758422 -4.449136 0.732596 -3.454834 4.590928 4.523807 -2.694536 6.778935 16.157728 4.196024 0.324269 60.024885 0.609785 -5.525402 -178.678134 61.259485 -174.086494 0.000000 0.000000 -0.000000 3.569798 22.614565 -11.196242 -2.447419 -20.896153 -1.429556 0.000000 0.000000 -0.000000 -2.491268 -17.216248 -5.451267 -6.125011 -8.871805 16.749037 
1.314263 -0.747120 -1.103618 -10.347470 46.458583 -8.661675 0.000000 -0.000000 0.000000 4.326424 -6.303016 2.526766 4.572105 -1.460495 7.314652 0.000000 0.000000 0.000000 4.719242 -1.715141 7.004624 1.488031 -19.445575 0.412678 2.553534 -0.710365 5.464950 -3.621151 -2.214466 -3.338155 -82.858376 -16.784943 -4.455684 0.763631 -3.424438 4.465114 4.497644 -2.759819 6.888561 16.027207 4.342474 0.250917 60.142205 0.963249 -5.343333 -178.986006 58.973450 -174.347617 0.000000 0.000000 -0.000000 3.660858 22.632954 -10.991745 -2.416909 -21.074643 -1.575893 0.000000 0.000000 -0.000000 -2.436899 -16.910952 -5.350947 -5.980576 -8.873500 16.676564 
